<svg xmlns="http://www.w3.org/2000/svg" viewBox="0 0 24.78 25.1"><defs><style>.a{fill:#ffff80;}</style></defs><title>Appdesign 2</title><path class="a" d="M12.37,25.09A27.27,27.27,0,0,1,2.31,23.67C0,22.84-.29,22.47.19,20.14A13.08,13.08,0,0,1,2,15.71a6.44,6.44,0,0,1,7.68-2.17,7.35,7.35,0,0,0,5.36,0c3.41-1.19,6.59-.06,8.07,2.64A23.11,23.11,0,0,1,24.67,21c.37,1.23-.29,1.86-1.36,2.35C20.8,24.47,17.22,25.09,12.37,25.09Z"/><path class="a" d="M12.34,0a5.71,5.71,0,0,1,5.84,5.76,5.88,5.88,0,0,1-5.73,5.8A5.87,5.87,0,0,1,6.61,5.73,5.73,5.73,0,0,1,12.34,0Z"/></svg>