<svg xmlns="http://www.w3.org/2000/svg" viewBox="0 0 24.65 25"><defs><style>.a{fill:#ccc;}</style></defs><title>home</title><path class="a" d="M2.59,14a11,11,0,0,1-1.65-.57,1.64,1.64,0,0,1-.72-2.31,5.26,5.26,0,0,1,1-1.38C4,6.87,6.76,4.08,9.56,1.28A3.75,3.75,0,0,1,12.64,0,3.78,3.78,0,0,1,15,1.15c1.82,1.79,3.61,3.6,5.41,5.4L23.5,9.69a3.8,3.8,0,0,1,1.1,1.83,1.68,1.68,0,0,1-1,2,11.15,11.15,0,0,1-1.49.38v.28l0,8.5a2.62,2.62,0,0,1-.67,1.89,1.2,1.2,0,0,1-.93.4H4.09a1.22,1.22,0,0,1-.94-.45,2.84,2.84,0,0,1-.59-1.93c0-2.88,0-5.77,0-8.65C2.59,13.93,2.58,13.9,2.59,14Z"/></svg>