<svg xmlns="http://www.w3.org/2000/svg" viewBox="0 0 116.21 148.64"><defs><style>.a{fill:#00004b;}.b{fill:#fff;}</style></defs><title>logo</title><path class="a" d="M91.32,99.07l11.1.7,13.57-12L115.85,22l-11.1-.7-4.59,4.06L99.25,21,89,20.35l-3.39,3,0-14.83L75.11,7.88l-4.33,3.76V9.56a10,10,0,0,0-1.7-6A6.78,6.78,0,0,0,63.71,1l-13-.8a6.33,6.33,0,0,0-4.86,1.35L46,1.47,32.84,12.9a5.3,5.3,0,0,0-.57.59,6.87,6.87,0,0,0-.94,1.6L19.4,14.36,6.28,25.78,4.5,37.33l11.3.7v2.61l-2.69-.16L0,51.91.06,80A9.06,9.06,0,0,0,2,86a6.76,6.76,0,0,0,5,2.47l12.38.77a5.8,5.8,0,0,0,4.34-1.29l7.17-6.25L31,130.91c0,3.46.61,6,1.81,7.54s3.32,2.45,6.34,2.64l10.72.66q4,.25,5.86-1.38L68.85,129h0a5.44,5.44,0,0,0,.48-.48c1.09-1.3,1.68-3.46,1.77-6.46l2.76.17a3.19,3.19,0,0,1,1.51.35c.29.19.44.72.44,1.58v1.11L63.38,136l1.89,11.77,12.89.8c2.64.17,4.58-.28,5.8-1.35l13.12-11.43,0,0a3.66,3.66,0,0,0,.44-.44c1.17-1.37,1.76-3.78,1.75-7.23l0-20.65c0-2.35-.45-4-1.34-5A5.36,5.36,0,0,0,94,100.82l-6.55-.4a1.82,1.82,0,0,1-1.19-.42,1.75,1.75,0,0,1-.4-1.32V98.4l4.48-4ZM65.75,130.23l-.11,0,.11,0m-.83.09h0M54.58,11.59l.05,0-.05,0m.14-.08.06,0-.06,0m.18-.06h0M45.8,1.63a5.76,5.76,0,0,0-.41.44,5.76,5.76,0,0,1,.41-.44M29,65.37c0-.11,0-.21,0-.33,0,.12,0,.22,0,.33m-.28.69L28.8,66l-.09.11m.13-.18a.61.61,0,0,0,.07-.14.61.61,0,0,1-.07.14m.1-.23a1.62,1.62,0,0,1,0-.19,1.62,1.62,0,0,0,0,.19m34.93,64.7h0m4.44-1,.08-.05-.08.05m-1.87.76h0m.65-.18.08,0-.08,0m.64-.26.09,0-.09,0m20.89-4.6.08-.1-.08.1m3.54,12.15h0M94,137.1h0m2.61-.93-.08.06.08-.06m-.57.33-.08,0,.08,0m-.64.27h0m-.67.19h0m-1.69.23h0M88.93,124.4a3,3,0,0,0,0-.32,3,3,0,0,1,0,.32m-.17.48a.54.54,0,0,0,.07-.13.54.54,0,0,1-.07.13m.11-.22s0-.11,0-.17,0,.12,0,.17"/><polygon class="a" points="105.03 47.55 91.46 59.55 91.4 33.16 104.97 21.17 105.03 47.55"/><polygon class="b" points="116.07 21.86 116.21 87.59 105.12 86.9 99.25 59.06 99.31 86.53 89.34 85.9 89.19 20.18 99.47 20.82 105.03 47.55 104.97 21.17 116.07 21.86"/><polygon class="b" points="85.77 8.35 85.91 70.96 75.47 70.31 75.33 7.7 85.77 8.35"/><path class="b" d="M69.3,3.36a9.92,9.92,0,0,1,1.7,6L71.1,55a15.21,15.21,0,0,1-.35,3.39,7.09,7.09,0,0,1-1.22,2.73,5.6,5.6,0,0,1-2.3,1.8,7.61,7.61,0,0,1-3.6.51l-12.09-.75a8.21,8.21,0,0,1-3.6-.95,6.86,6.86,0,0,1-2.31-2.09,8.29,8.29,0,0,1-1.23-2.88A15.82,15.82,0,0,1,44,53.31L43.94,7.7a9,9,0,0,1,1.67-5.81C46.74.49,48.52-.13,51,0l13,.8A6.81,6.81,0,0,1,69.3,3.36M60.51,51l-.08-38.18c0-.8-.32-1.23-.94-1.26l-4.1-.26c-.63,0-.94.35-.94,1.15l.09,38.18a2.07,2.07,0,0,0,.18,1,1,1,0,0,0,.83.36l4,.24c.43,0,.71,0,.83-.25a2.09,2.09,0,0,0,.17-1"/><path class="b" d="M97.34,74.76l1.82,11.77-11.8-.73c-.87,0-1.3.38-1.3,1.3l0,11.4a1.72,1.72,0,0,0,.4,1.32,1.82,1.82,0,0,0,1.19.42l6.55.41a5.34,5.34,0,0,1,3.85,1.66q1.33,1.51,1.34,5l0,20.64c0,3.46-.58,5.87-1.75,7.23s-3.24,2-6.22,1.78l-12.88-.8-1.9-11.77,11.23.69c.81.05,1.22-.36,1.22-1.22l0-11.4c0-.87-.14-1.39-.43-1.58a3.26,3.26,0,0,0-1.51-.35l-5.4-.34a11.11,11.11,0,0,1-2.2-.35,4.15,4.15,0,0,1-1.87-1.11,5.48,5.48,0,0,1-1.3-2.24A11.92,11.92,0,0,1,76,102.8l0-21.25a9,9,0,0,1,1.67-5.81c1.13-1.4,2.91-2,5.36-1.87Z"/><path class="b" d="M71.2,68l.12,53c0,3.45-.59,5.89-1.78,7.31s-3.31,2-6.33,1.86l-10.73-.67c-3-.19-5.13-1.06-6.33-2.64s-1.81-4.08-1.82-7.53l-.12-52.95L54.86,67,55,117.29a2.47,2.47,0,0,0,.19,1,.88.88,0,0,0,.83.4l3.67.23c.43,0,.7-.07.82-.3a2.21,2.21,0,0,0,.18-1l-.11-50.27Z"/><path class="b" d="M39.63,15.42l.12,53.63A10.39,10.39,0,0,1,38,75.29a5.57,5.57,0,0,1-5.25,2.31l-12.38-.77a6.79,6.79,0,0,1-5-2.47,9,9,0,0,1-1.93-6L13.34,40.3l10.15.63.06,23.67q0,1.2.93,1.26l3.82.24c.62,0,.93-.38.93-1.24l-.08-38.43-11.3-.7,1.77-11.55Z"/></svg>