<svg xmlns="http://www.w3.org/2000/svg" xmlns:xlink="http://www.w3.org/1999/xlink" viewBox="0 0 121.85 192.62"><defs><style>.a{fill:#211c51;}.b{fill:#fff;}</style></defs><title>logo</title><image width="1241" height="1754" transform="translate(1.96) scale(0.1)" xlink:href="../../art/Paaspop-2019-Logo-RGB-01.png"/><polygon class="a" points="38.52 140.21 38.87 165.17 43.77 165.52 57.74 152.2 52.49 126.89 38.52 140.21"/><path class="b" d="M52.49,126.89l5,.24.34,25.07-5-.24Z"/><polygon class="a" points="24.63 139.7 24.98 164.67 29.4 165.03 32.45 162.13 32.45 165.03 37.44 165.49 51.41 152.17 45.95 126.74 42.4 130.13 38.66 126.38 24.63 139.7"/><path class="b" d="M38.66,126.38l4.75.23,2.68,10.23L46,126.74l5.12.25.34,25.07-5.13-.25-2.82-10.58.14,10.45-4.6-.23Z"/><polygon class="a" points="17.65 139.35 18 164.32 22.9 164.67 36.87 151.35 31.62 126.04 17.65 139.35"/><path class="b" d="M31.62,126l5,.24.33,25.07-5-.24Z"/><polygon class="a" points="0 138.58 0.41 163.62 5.36 163.9 8.52 162.24 11.7 164.15 16.6 164.44 30.57 151.13 24.8 126.03 19.49 131.09 13.97 125.27 0 138.58"/><path class="b" d="M19.17,138.78l.16,11.8-4.95-.25L14,125.26l5.37.27,2.85,10.75,2.58-10.49,5.4.27.33,25.07-4.95-.25-.16-11.79-3,9.85Z"/><path class="a" d="M61.91,168.45s-.45,10.82-.5,11.6a2.25,2.25,0,0,0,1.37,2c.61.1,4.7.52,4.7.52l-5.57,5.34.87,4.72,9.1-.42,14-13.32-5.4-14,5.77-5.54-9.28-4.91-.75.34Z"/><path class="b" d="M76.62,179.28l-1-4.7,5.37.27c.39,0,.58-.15.58-.49l-.07-4.55q0-.52-.21-.63a1.64,1.64,0,0,0-.72-.14L78,168.91a5.78,5.78,0,0,1-1-.14,2.11,2.11,0,0,1-1.53-1.33,4,4,0,0,1-.24-1.49l-.12-8.55a3.25,3.25,0,0,1,.76-2.33,3.09,3.09,0,0,1,2.53-.75l6.91.34.93,4.69-5.64-.27c-.41,0-.62.15-.61.52l.06,4.62a.67.67,0,0,0,.19.53,1.07,1.07,0,0,0,.57.16l3.13.15a2.84,2.84,0,0,1,1.85.66,2.7,2.7,0,0,1,.66,2l.12,8.69q0,3.34-3.29,3.18Z"/><polygon class="a" points="48.99 166.87 49.14 191.84 58.64 192.4 72.6 179.09 67.81 174.87 68.09 172.76 72.22 168.97 66.68 165.12 68.03 163.83 73.39 158.72 62.78 153.55 48.99 166.87"/><path class="b" d="M62.78,153.55l9.69.48.92,4.69L68,158.46l.08,6,4.13.2,0,4.31-4.12-.2.07,5.45,5.23.25-.8,4.62-9.49-.47Z"/><polygon class="a" points="30.56 166.11 30.95 190.98 35.74 191.44 37.54 189.72 38.99 189.79 40.97 187.91 42.41 186.53 42.01 191.62 47.08 191.84 61.05 178.52 55.55 153.37 50.66 157.74 44.92 152.79 30.56 166.11"/><path class="b" d="M49.65,166.18,49.81,178l-5-.24-.33-25.07,5.37.26,2.85,10.76,2.58-10.49,5.39.26.34,25.07-4.95-.24-.16-11.79-3,9.84Z"/><polygon class="a" points="19.46 165.38 15.18 190.21 20.29 190.54 23.61 187.37 23.97 187.66 24.46 190.75 29.51 190.98 43.48 177.66 33.43 152.06 19.46 165.38"/><path class="b" d="M34.57,174.12l-.41,3.09-5-.25,4.17-24.85,5.33.26,4.84,25.29-5-.24L38,174.29Zm.5-3.93,2.3.11-1.25-9Z"/><path class="a" d="M13.8,190.21s-8.5-.42-9.72-.42a3.25,3.25,0,0,1-2.87-2.95c0-1.56.51-21.46.51-21.46L16.07,151.8l9.7,4.18.08.42-6.39,6v2.71l.35,0,3-2.73,4.94,14.53Z"/><path class="b" d="M14.9,154.55q0-3.35,3.29-3.18l6.74.33.92,4.7-5.47-.27c-.3,0-.44.14-.44.46l.2,14.9c0,.32.15.49.45.5l2.27.11-.13-9.86,4.85.24.19,14.41-9.25-.45a3.17,3.17,0,0,1-3.38-3.51Z"/></svg>