<svg id="Layer_1" data-name="Layer 1" xmlns="http://www.w3.org/2000/svg" viewBox="0 0 284 129"><defs><style>.cls-1{fill:#fff;}</style></defs><title>mail</title><rect class="cls-1" y="17" width="93" height="14" rx="7"/><rect class="cls-1" x="23" y="50" width="68" height="14" rx="7"/><rect class="cls-1" x="41" y="83" width="47" height="14" rx="7"/><path class="cls-1" d="M261.36,0H129.64A22.71,22.71,0,0,0,107,22.64l-8,83.72A22.71,22.71,0,0,0,121.64,129H253.36A22.71,22.71,0,0,0,276,106.36l8-83.72A22.71,22.71,0,0,0,261.36,0Zm-8.94,18L195.5,67.23,138.58,18ZM258,106.36a4.71,4.71,0,0,1-4.64,4.64H121.64a4.71,4.71,0,0,1-4.64-4.64L125,30l64.47,55.77A9,9,0,0,0,195.36,88h.28a9,9,0,0,0,5.89-2.19L266,30Z"/></svg>