<svg xmlns="http://www.w3.org/2000/svg" viewBox="0 0 25.77 25.01"><defs><style>.a{fill:#ccc;}</style></defs><title>home</title><path class="a" d="M25.71,3c-.09-1-.35-1.15-1.31-1.16H21V0H4.39V1.85c-1.15,0-2.22,0-3.3,0-.68,0-1.07.32-1.08,1A22.24,22.24,0,0,0,.13,6.31,8.41,8.41,0,0,0,4.68,12.8a1.1,1.1,0,0,1,.42.48A8.26,8.26,0,0,0,10.27,18c.48.16,1,.26,1.5.39v4.71H7.61c-.72,0-1.13.37-1.14,1s.4,1,1.1,1q5.13,0,10.27,0a1,1,0,0,0,1.07-1c0-.59-.41-1-1.1-1H14.27l-.6,0c0-1.52,0-3,0-4.47,0-.11.22-.28.36-.3a8.41,8.41,0,0,0,6.29-4.89,1.37,1.37,0,0,1,.52-.52,8.62,8.62,0,0,0,2.91-2.32A10.36,10.36,0,0,0,25.71,3ZM4.39,11.24A7,7,0,0,1,1.67,7.76a10.26,10.26,0,0,1-.6-4.35c0-.16.18-.42.29-.43,1,0,2,0,3,0Zm16.88,0-.23.14V3c1.13,0,2.16,0,3.18,0,.13,0,.36.2.36.3C24.71,6.43,24,9.25,21.27,11.21Z"/></svg>